<mxfile host="Electron" agent="Mozilla/5.0 (Windows NT 10.0; Win64; x64) AppleWebKit/537.36 (KHTML, like Gecko) draw.io/24.7.17 Chrome/128.0.6613.36 Electron/32.0.1 Safari/537.36" version="24.7.17">
  <diagram name="Page-1" id="n3AiUO1fEM07_2rZfQIm">
    <mxGraphModel dx="1434" dy="844" grid="1" gridSize="10" guides="1" tooltips="1" connect="1" arrows="1" fold="1" page="1" pageScale="1" pageWidth="850" pageHeight="1100" math="0" shadow="0">
      <root>
        <mxCell id="0" />
        <mxCell id="1" parent="0" />
        <mxCell id="UTCil9XCIn1sRvDRZHX6-2" value="&lt;p style=&quot;margin:0px;margin-top:4px;text-align:center;&quot;&gt;&lt;b&gt;Online Shopping System&lt;/b&gt;&lt;/p&gt;&lt;p style=&quot;margin:0px;margin-top:4px;text-align:center;&quot;&gt;&lt;b&gt;&lt;br&gt;&lt;/b&gt;&lt;/p&gt;" style="verticalAlign=top;align=left;overflow=fill;html=1;whiteSpace=wrap;" vertex="1" parent="1">
          <mxGeometry x="175" y="150" width="495" height="780" as="geometry" />
        </mxCell>
        <mxCell id="UTCil9XCIn1sRvDRZHX6-3" value="Login" style="ellipse;whiteSpace=wrap;html=1;" vertex="1" parent="1">
          <mxGeometry x="220" y="590" width="100" height="60" as="geometry" />
        </mxCell>
        <mxCell id="UTCil9XCIn1sRvDRZHX6-4" value="Create Account" style="ellipse;whiteSpace=wrap;html=1;" vertex="1" parent="1">
          <mxGeometry x="220" y="280" width="100" height="60" as="geometry" />
        </mxCell>
        <mxCell id="UTCil9XCIn1sRvDRZHX6-5" value="View Products" style="ellipse;whiteSpace=wrap;html=1;" vertex="1" parent="1">
          <mxGeometry x="440" y="410" width="100" height="60" as="geometry" />
        </mxCell>
        <mxCell id="UTCil9XCIn1sRvDRZHX6-8" value="Check Out" style="ellipse;whiteSpace=wrap;html=1;" vertex="1" parent="1">
          <mxGeometry x="440" y="670" width="100" height="50" as="geometry" />
        </mxCell>
        <mxCell id="UTCil9XCIn1sRvDRZHX6-13" value="New Customer&lt;div&gt;&lt;br&gt;&lt;/div&gt;" style="shape=umlActor;verticalLabelPosition=bottom;verticalAlign=top;html=1;" vertex="1" parent="1">
          <mxGeometry x="60" y="250" width="40" height="70" as="geometry" />
        </mxCell>
        <mxCell id="UTCil9XCIn1sRvDRZHX6-14" value="Existing Customer" style="shape=umlActor;verticalLabelPosition=bottom;verticalAlign=top;html=1;" vertex="1" parent="1">
          <mxGeometry x="60" y="580" width="40" height="70" as="geometry" />
        </mxCell>
        <mxCell id="UTCil9XCIn1sRvDRZHX6-17" value="Administrator" style="shape=umlActor;verticalLabelPosition=bottom;verticalAlign=top;html=1;" vertex="1" parent="1">
          <mxGeometry x="750" y="300" width="30" height="60" as="geometry" />
        </mxCell>
        <mxCell id="UTCil9XCIn1sRvDRZHX6-18" value="Shopping Company" style="shape=umlActor;verticalLabelPosition=bottom;verticalAlign=top;html=1;" vertex="1" parent="1">
          <mxGeometry x="750" y="620" width="30" height="60" as="geometry" />
        </mxCell>
        <mxCell id="UTCil9XCIn1sRvDRZHX6-19" value="Add Product to Cart" style="ellipse;whiteSpace=wrap;html=1;" vertex="1" parent="1">
          <mxGeometry x="440" y="540" width="100" height="60" as="geometry" />
        </mxCell>
        <mxCell id="UTCil9XCIn1sRvDRZHX6-20" value="Add Payment Method" style="ellipse;whiteSpace=wrap;html=1;" vertex="1" parent="1">
          <mxGeometry x="425" y="230" width="130" height="60" as="geometry" />
        </mxCell>
        <mxCell id="UTCil9XCIn1sRvDRZHX6-21" value="" style="endArrow=block;dashed=1;endFill=0;endSize=12;html=1;rounded=0;entryX=0.5;entryY=1;entryDx=0;entryDy=0;" edge="1" parent="1" source="UTCil9XCIn1sRvDRZHX6-19" target="UTCil9XCIn1sRvDRZHX6-5">
          <mxGeometry width="160" relative="1" as="geometry">
            <mxPoint x="410" y="510" as="sourcePoint" />
            <mxPoint x="530" y="510" as="targetPoint" />
          </mxGeometry>
        </mxCell>
        <mxCell id="UTCil9XCIn1sRvDRZHX6-23" value="" style="endArrow=block;dashed=1;endFill=0;endSize=12;html=1;rounded=0;entryX=0.5;entryY=0;entryDx=0;entryDy=0;exitX=0.5;exitY=1;exitDx=0;exitDy=0;" edge="1" parent="1" source="UTCil9XCIn1sRvDRZHX6-19" target="UTCil9XCIn1sRvDRZHX6-8">
          <mxGeometry width="160" relative="1" as="geometry">
            <mxPoint x="340" y="640" as="sourcePoint" />
            <mxPoint x="500" y="640" as="targetPoint" />
          </mxGeometry>
        </mxCell>
        <mxCell id="UTCil9XCIn1sRvDRZHX6-24" value="" style="endArrow=block;dashed=1;endFill=0;endSize=12;html=1;rounded=0;entryX=0.5;entryY=1;entryDx=0;entryDy=0;exitX=1;exitY=0;exitDx=0;exitDy=0;" edge="1" parent="1" source="UTCil9XCIn1sRvDRZHX6-3" target="UTCil9XCIn1sRvDRZHX6-20">
          <mxGeometry width="160" relative="1" as="geometry">
            <mxPoint x="240" y="530" as="sourcePoint" />
            <mxPoint x="400" y="530" as="targetPoint" />
          </mxGeometry>
        </mxCell>
        <mxCell id="UTCil9XCIn1sRvDRZHX6-25" value="" style="endArrow=block;dashed=1;endFill=0;endSize=12;html=1;rounded=0;exitX=1;exitY=0.5;exitDx=0;exitDy=0;entryX=0;entryY=1;entryDx=0;entryDy=0;" edge="1" parent="1" source="UTCil9XCIn1sRvDRZHX6-4" target="UTCil9XCIn1sRvDRZHX6-20">
          <mxGeometry width="160" relative="1" as="geometry">
            <mxPoint x="342.5" y="360" as="sourcePoint" />
            <mxPoint x="502.5" y="360" as="targetPoint" />
          </mxGeometry>
        </mxCell>
        <mxCell id="UTCil9XCIn1sRvDRZHX6-26" value="" style="endArrow=block;dashed=1;endFill=0;endSize=12;html=1;rounded=0;exitX=1;exitY=0.5;exitDx=0;exitDy=0;entryX=0;entryY=1;entryDx=0;entryDy=0;" edge="1" parent="1" source="UTCil9XCIn1sRvDRZHX6-3" target="UTCil9XCIn1sRvDRZHX6-5">
          <mxGeometry width="160" relative="1" as="geometry">
            <mxPoint x="400" y="550" as="sourcePoint" />
            <mxPoint x="560" y="550" as="targetPoint" />
          </mxGeometry>
        </mxCell>
        <mxCell id="UTCil9XCIn1sRvDRZHX6-27" value="" style="endArrow=block;dashed=1;endFill=0;endSize=12;html=1;rounded=0;exitX=0.94;exitY=0.783;exitDx=0;exitDy=0;exitPerimeter=0;entryX=0;entryY=0.5;entryDx=0;entryDy=0;" edge="1" parent="1" source="UTCil9XCIn1sRvDRZHX6-4" target="UTCil9XCIn1sRvDRZHX6-5">
          <mxGeometry width="160" relative="1" as="geometry">
            <mxPoint x="400" y="550" as="sourcePoint" />
            <mxPoint x="560" y="550" as="targetPoint" />
          </mxGeometry>
        </mxCell>
        <mxCell id="UTCil9XCIn1sRvDRZHX6-28" value="&amp;lt;&amp;lt;include&amp;gt;&amp;gt;" style="text;html=1;align=center;verticalAlign=middle;resizable=0;points=[];autosize=1;strokeColor=none;fillColor=none;rotation=90;" vertex="1" parent="1">
          <mxGeometry x="470" y="620" width="90" height="30" as="geometry" />
        </mxCell>
        <mxCell id="UTCil9XCIn1sRvDRZHX6-29" value="&amp;lt;&amp;lt;include&amp;gt;&amp;gt;" style="text;html=1;align=center;verticalAlign=middle;resizable=0;points=[];autosize=1;strokeColor=none;fillColor=none;rotation=90;" vertex="1" parent="1">
          <mxGeometry x="465" y="490" width="90" height="30" as="geometry" />
        </mxCell>
        <mxCell id="UTCil9XCIn1sRvDRZHX6-30" value="&amp;lt;&amp;lt;extend&amp;gt;&amp;gt;" style="text;html=1;align=center;verticalAlign=middle;resizable=0;points=[];autosize=1;strokeColor=none;fillColor=none;rotation=-60;" vertex="1" parent="1">
          <mxGeometry x="270" y="530" width="90" height="30" as="geometry" />
        </mxCell>
        <mxCell id="UTCil9XCIn1sRvDRZHX6-32" value="&amp;lt;&amp;lt;extend&amp;gt;&amp;gt;" style="text;html=1;align=center;verticalAlign=middle;resizable=0;points=[];autosize=1;strokeColor=none;fillColor=none;rotation=-45;" vertex="1" parent="1">
          <mxGeometry x="335" y="570" width="90" height="30" as="geometry" />
        </mxCell>
        <mxCell id="UTCil9XCIn1sRvDRZHX6-33" value="&amp;lt;&amp;lt;extend&amp;gt;&amp;gt;" style="text;html=1;align=center;verticalAlign=middle;resizable=0;points=[];autosize=1;strokeColor=none;fillColor=none;rotation=45;" vertex="1" parent="1">
          <mxGeometry x="300" y="360" width="90" height="30" as="geometry" />
        </mxCell>
        <mxCell id="UTCil9XCIn1sRvDRZHX6-34" value="&amp;lt;&amp;lt;extend&amp;gt;&amp;gt;" style="text;html=1;align=center;verticalAlign=middle;resizable=0;points=[];autosize=1;strokeColor=none;fillColor=none;rotation=-15;" vertex="1" parent="1">
          <mxGeometry x="320" y="270" width="90" height="30" as="geometry" />
        </mxCell>
        <mxCell id="UTCil9XCIn1sRvDRZHX6-35" value="" style="endArrow=none;html=1;rounded=0;entryX=0;entryY=0.5;entryDx=0;entryDy=0;exitX=0.5;exitY=0.5;exitDx=0;exitDy=0;exitPerimeter=0;" edge="1" parent="1" source="UTCil9XCIn1sRvDRZHX6-14" target="UTCil9XCIn1sRvDRZHX6-3">
          <mxGeometry width="50" height="50" relative="1" as="geometry">
            <mxPoint x="100" y="630" as="sourcePoint" />
            <mxPoint x="150" y="580" as="targetPoint" />
          </mxGeometry>
        </mxCell>
        <mxCell id="UTCil9XCIn1sRvDRZHX6-37" value="" style="endArrow=none;html=1;rounded=0;entryX=0;entryY=0.5;entryDx=0;entryDy=0;exitX=0.5;exitY=0.5;exitDx=0;exitDy=0;exitPerimeter=0;" edge="1" parent="1" source="UTCil9XCIn1sRvDRZHX6-13" target="UTCil9XCIn1sRvDRZHX6-4">
          <mxGeometry width="50" height="50" relative="1" as="geometry">
            <mxPoint x="110" y="300" as="sourcePoint" />
            <mxPoint x="160" y="250" as="targetPoint" />
            <Array as="points" />
          </mxGeometry>
        </mxCell>
        <mxCell id="UTCil9XCIn1sRvDRZHX6-38" value="" style="endArrow=none;html=1;rounded=0;exitX=1;exitY=0.5;exitDx=0;exitDy=0;" edge="1" parent="1" source="UTCil9XCIn1sRvDRZHX6-20" target="UTCil9XCIn1sRvDRZHX6-17">
          <mxGeometry width="50" height="50" relative="1" as="geometry">
            <mxPoint x="680" y="430" as="sourcePoint" />
            <mxPoint x="730" y="380" as="targetPoint" />
          </mxGeometry>
        </mxCell>
        <mxCell id="UTCil9XCIn1sRvDRZHX6-39" value="" style="endArrow=none;html=1;rounded=0;exitX=0.88;exitY=0.267;exitDx=0;exitDy=0;exitPerimeter=0;" edge="1" parent="1" source="UTCil9XCIn1sRvDRZHX6-5" target="UTCil9XCIn1sRvDRZHX6-17">
          <mxGeometry width="50" height="50" relative="1" as="geometry">
            <mxPoint x="560" y="320" as="sourcePoint" />
            <mxPoint x="735" y="440" as="targetPoint" />
          </mxGeometry>
        </mxCell>
        <mxCell id="UTCil9XCIn1sRvDRZHX6-40" value="" style="endArrow=none;html=1;rounded=0;exitX=1;exitY=0.5;exitDx=0;exitDy=0;" edge="1" parent="1" source="UTCil9XCIn1sRvDRZHX6-8">
          <mxGeometry width="50" height="50" relative="1" as="geometry">
            <mxPoint x="690" y="710" as="sourcePoint" />
            <mxPoint x="760" y="660" as="targetPoint" />
          </mxGeometry>
        </mxCell>
        <mxCell id="UTCil9XCIn1sRvDRZHX6-41" value="" style="endArrow=none;html=1;rounded=0;exitX=1;exitY=0.5;exitDx=0;exitDy=0;" edge="1" parent="1" source="UTCil9XCIn1sRvDRZHX6-5">
          <mxGeometry width="50" height="50" relative="1" as="geometry">
            <mxPoint x="540" y="685" as="sourcePoint" />
            <mxPoint x="760" y="650" as="targetPoint" />
          </mxGeometry>
        </mxCell>
        <mxCell id="UTCil9XCIn1sRvDRZHX6-42" value="" style="endArrow=none;html=1;rounded=0;exitX=1;exitY=0.5;exitDx=0;exitDy=0;" edge="1" parent="1" source="UTCil9XCIn1sRvDRZHX6-19">
          <mxGeometry width="50" height="50" relative="1" as="geometry">
            <mxPoint x="710" y="420" as="sourcePoint" />
            <mxPoint x="760" y="370" as="targetPoint" />
            <Array as="points" />
          </mxGeometry>
        </mxCell>
      </root>
    </mxGraphModel>
  </diagram>
</mxfile>
